#define 19bce784314d45698824f37adf47c3bfOs0VdoxpgZ9oLNQ4_width 16
#define 19bce784314d45698824f37adf47c3bfOs0VdoxpgZ9oLNQ4_height 16
static char 19bce784314d45698824f37adf47c3bfOs0VdoxpgZ9oLNQ4_bits[] = {
  0x00, 0x00, 0xD0, 0x0B, 0xF4, 0x2F, 0xF8, 0x1F, 0xFE, 0x7F, 0xFC, 0x3F, 
  0xFC, 0x3F, 0xFE, 0x7F, 0xFE, 0x7F, 0xFC, 0x3F, 0xFC, 0x3F, 0xFE, 0x77, 
  0xF8, 0x1F, 0xF4, 0x2F, 0xD0, 0x0B, 0x00, 0x00, };
